<svg width="123" height="75" viewBox="0 0 123 75" fill="none" xmlns="http://www.w3.org/2000/svg">
<path d="M35.3636 70.6021V65.0643C35.3636 57.7208 38.1173 50.6781 43.0188 45.4855C47.9203 40.2928 54.5682 37.3756 61.5 37.3756M61.5 37.3756C68.4318 37.3756 75.0797 40.2928 79.9812 45.4855C84.8827 50.6781 87.6364 57.7208 87.6364 65.0643V70.6021M61.5 37.3756C65.6591 37.3756 69.6478 35.6253 72.5887 32.5097C75.5296 29.3941 77.1818 25.1685 77.1818 20.7624C77.1818 16.3563 75.5296 12.1307 72.5887 9.01507C69.6478 5.89949 65.6591 4.14917 61.5 4.14917C57.3409 4.14917 53.3522 5.89949 50.4113 9.01507C47.4704 12.1307 45.8182 16.3563 45.8182 20.7624C45.8182 25.1685 47.4704 29.3941 50.4113 32.5097C53.3522 35.6253 57.3409 37.3756 61.5 37.3756ZM4 70.6021V65.0643C4 60.6582 5.65219 56.4326 8.5931 53.317C11.534 50.2014 15.5227 48.4511 19.6818 48.4511M19.6818 48.4511C22.4545 48.4511 25.1137 47.2842 27.0743 45.2072C29.0349 43.1301 30.1364 40.313 30.1364 37.3756C30.1364 34.4382 29.0349 31.6211 27.0743 29.5441C25.1137 27.467 22.4545 26.3001 19.6818 26.3001C16.9091 26.3001 14.2499 27.467 12.2893 29.5441C10.3287 31.6211 9.22727 34.4382 9.22727 37.3756C9.22727 40.313 10.3287 43.1301 12.2893 45.2072C14.2499 47.2842 16.9091 48.4511 19.6818 48.4511ZM119 70.6021V65.0643C119 60.6582 117.348 56.4326 114.407 53.317C111.466 50.2014 107.477 48.4511 103.318 48.4511M103.318 48.4511C106.091 48.4511 108.75 47.2842 110.711 45.2072C112.671 43.1301 113.773 40.313 113.773 37.3756C113.773 34.4382 112.671 31.6211 110.711 29.5441C108.75 27.467 106.091 26.3001 103.318 26.3001C100.545 26.3001 97.8863 27.467 95.9257 29.5441C93.9651 31.6211 92.8636 34.4382 92.8636 37.3756C92.8636 40.313 93.9651 43.1301 95.9257 45.2072C97.8863 47.2842 100.545 48.4511 103.318 48.4511Z" stroke="#E5E5EA" stroke-width="7" stroke-linecap="round" stroke-linejoin="round"/>
</svg>
