<svg width="67" height="71" viewBox="0 0 67 71" fill="none" xmlns="http://www.w3.org/2000/svg">
<path d="M6.28114 0.14917C2.80558 0.14917 0 3.10388 0 6.75537V64.0018C0 67.6533 2.80976 70.608 6.28114 70.608H10.4686C13.9316 70.608 16.7455 67.6533 16.7455 64.0018V6.75537C16.7455 3.10388 13.9316 0.14917 10.4644 0.14917H6.28114ZM27.2099 0.14917C23.7427 0.14917 20.9288 3.10388 20.9288 6.75537V64.0018C20.9288 67.6533 23.7427 70.608 27.2099 70.608H31.3973C34.8645 70.608 37.6743 67.6533 37.6743 64.0018V6.75537C37.6743 3.10829 34.8645 0.14917 31.3931 0.14917H27.2099ZM57.4431 18.4816C57.2518 17.6086 56.8941 16.7856 56.3917 16.0626C55.8893 15.3396 55.2527 14.7316 54.5204 14.2755C53.7882 13.8194 52.9756 13.5247 52.132 13.4093C51.2883 13.2939 50.4312 13.3602 49.6126 13.6041L46.493 14.5302C44.97 14.9859 43.6666 16.0304 42.8435 17.4549C42.0205 18.8793 41.7387 20.5785 42.0543 22.2125L50.4418 65.4262C50.6131 66.3021 50.9513 67.1323 51.4359 67.8667C51.9206 68.601 52.5415 69.2242 53.2613 69.6987C53.9811 70.1731 54.7848 70.489 55.6237 70.6271C56.4627 70.7652 57.3195 70.7227 58.1424 70.5022L62.2671 69.3997C65.5751 68.5177 67.6018 65.0161 66.8397 61.519L57.4431 18.4816Z" fill="#E5E5EA"/>
</svg>
