<svg width="20" height="18" viewBox="0 0 20 18" fill="none" xmlns="http://www.w3.org/2000/svg">
<path d="M4.22 2.00051C4.21974 2.53094 4.00877 3.03955 3.63351 3.41443C3.25825 3.78932 2.74943 3.99978 2.219 3.99951C1.68857 3.99925 1.17997 3.78828 0.805081 3.41302C0.430195 3.03776 0.219736 2.52894 0.220001 1.99851C0.220267 1.46808 0.431235 0.959476 0.806495 0.584591C1.18176 0.209706 1.69057 -0.000753247 2.221 -0.000488031C2.75143 -0.000222814 3.26004 0.210745 3.63492 0.586005C4.00981 0.961266 4.22027 1.47008 4.22 2.00051ZM4.28 5.48051H0.280001V18.0005H4.28V5.48051ZM10.6 5.48051H6.62V18.0005H10.56V11.4305C10.56 7.77051 15.33 7.43051 15.33 11.4305V18.0005H19.28V10.0705C19.28 3.90051 12.22 4.13051 10.56 7.16051L10.6 5.48051Z" fill="white"/>
</svg>
