<svg width="99" height="99" viewBox="0 0 99 99" fill="none" xmlns="http://www.w3.org/2000/svg">
<path d="M40.2188 18.5625C39.9452 18.5625 39.6829 18.6711 39.4895 18.8645C39.2961 19.0579 39.1875 19.3202 39.1875 19.5938V36.0938C39.1875 36.9143 38.8616 37.7012 38.2814 38.2814C37.7012 38.8616 36.9143 39.1875 36.0938 39.1875H19.5938C19.3202 39.1875 19.0579 39.2961 18.8645 39.4895C18.6711 39.6829 18.5625 39.9452 18.5625 40.2188V58.7812C18.5625 59.3505 19.0245 59.8125 19.5938 59.8125H36.0938C36.9143 59.8125 37.7012 60.1385 38.2814 60.7186C38.8616 61.2988 39.1875 62.0857 39.1875 62.9062V79.4062C39.1875 79.9755 39.6495 80.4375 40.2188 80.4375H58.7812C59.0548 80.4375 59.3171 80.3288 59.5105 80.1355C59.7038 79.9421 59.8125 79.6798 59.8125 79.4062V62.9062C59.8125 62.0857 60.1385 61.2988 60.7186 60.7186C61.2988 60.1385 62.0857 59.8125 62.9062 59.8125H79.4062C79.6798 59.8125 79.9421 59.7038 80.1355 59.5105C80.3288 59.3171 80.4375 59.0548 80.4375 58.7812V40.2188C80.4375 39.9452 80.3288 39.6829 80.1355 39.4895C79.9421 39.2961 79.6798 39.1875 79.4062 39.1875H62.9062C62.0857 39.1875 61.2988 38.8616 60.7186 38.2814C60.1385 37.7012 59.8125 36.9143 59.8125 36.0938V19.5938C59.8125 19.3202 59.7038 19.0579 59.5105 18.8645C59.3171 18.6711 59.0548 18.5625 58.7812 18.5625H40.2188ZM33 19.5938C33 15.609 36.234 12.375 40.2188 12.375H58.7812C62.766 12.375 66 15.609 66 19.5938V33H79.4062C83.391 33 86.625 36.234 86.625 40.2188V58.7812C86.625 60.6958 85.8645 62.5319 84.5107 63.8857C83.1569 65.2395 81.3208 66 79.4062 66H66V79.4062C66 81.3208 65.2395 83.1569 63.8857 84.5107C62.5319 85.8645 60.6958 86.625 58.7812 86.625H40.2188C38.3042 86.625 36.4681 85.8645 35.1143 84.5107C33.7605 83.1569 33 81.3208 33 79.4062V66H19.5938C17.6792 66 15.8431 65.2395 14.4893 63.8857C13.1355 62.5319 12.375 60.6958 12.375 58.7812V40.2188C12.375 36.234 15.609 33 19.5938 33H33V19.5938Z" fill="#E5E5EA"/>
</svg>
