<svg width="65" height="72" viewBox="0 0 65 72" fill="none" xmlns="http://www.w3.org/2000/svg">
<path d="M4.33333 62.7232H21.6667V67.2009H0V0.0341797H60.6667V35.8565H56.3333V17.9453H4.33333V62.7232ZM4.33333 13.4675H56.3333V4.51196H4.33333V13.4675ZM65 40.3342V71.6787H26V40.3342H30.3333V67.2009H60.6667V40.3342H65ZM52 58.2454H56.3333V62.7232H52V58.2454ZM56.3333 53.7676H52V49.2898H56.3333V53.7676ZM56.3333 44.812H52V40.3342H56.3333V44.812ZM43.3333 58.2454H47.6667V62.7232H43.3333V58.2454ZM47.6667 53.7676H43.3333V49.2898H47.6667V53.7676ZM34.6667 62.7232V58.2454H39V62.7232H34.6667Z" fill="#E5E5EA"/>
</svg>
