<svg width="59" height="59" viewBox="0 0 59 59" fill="none" xmlns="http://www.w3.org/2000/svg">
<circle cx="29.5" cy="29.5" r="29.5" fill="#EEEEEE"/>
<path d="M34.7233 31.8365H33.7296L33.3774 31.4969C34.6101 30.0629 35.3522 28.2013 35.3522 26.1761C35.3522 21.6604 31.6918 18 27.1761 18C22.6604 18 19 21.6604 19 26.1761C19 30.6918 22.6604 34.3522 27.1761 34.3522C29.2013 34.3522 31.0629 33.6101 32.4969 32.3774L32.8365 32.7296V33.7233L39.1258 40L41 38.1258L34.7233 31.8365ZM27.1761 31.8365C24.044 31.8365 21.5157 29.3082 21.5157 26.1761C21.5157 23.044 24.044 20.5157 27.1761 20.5157C30.3082 20.5157 32.8365 23.044 32.8365 26.1761C32.8365 29.3082 30.3082 31.8365 27.1761 31.8365Z" fill="#7E7E7E"/>
</svg>
